<svg xmlns="http://www.w3.org/2000/svg" version="1.1" xmlns:xlink="http://www.w3.org/1999/xlink" xmlns:svgjs="http://svgjs.com/svgjs" width="1440" height="560" preserveAspectRatio="none" viewBox="0 0 1440 560"><g mask="url(&quot;#SvgjsMask1009&quot;)" fill="none"><path d="M456.53 501.44a1.91 1.91 0 1 0-1.45-3.53z" fill="rgba(119, 221, 119, 1)"></path><path d="M223.76 302.59L224.79 302.59L224.79 303.62L223.76 303.62z" fill="rgba(132, 182, 244, 1)"></path><path d="M937.16 291.43L983.15 291.43L983.15 302.67L937.16 302.67z" stroke="rgba(255, 105, 97, 1)"></path><path d="M1315.73 231.2 a10.38 10.38 0 1 0 20.76 0 a10.38 10.38 0 1 0 -20.76 0z" fill="rgba(119, 221, 119, 1)"></path><path d="M196.03 40.96L199.23 40.96L199.23 43.32L196.03 43.32z" stroke="rgba(253, 202, 225, 1)"></path><path d="M502.38 371.9 a46.1 46.1 0 1 0 92.2 0 a46.1 46.1 0 1 0 -92.2 0z" fill="rgba(253, 253, 150, 1)"></path><path d="M1215.91 78.6a53.28 53.28 0 1 0 103.98 23.3z" stroke="rgba(132, 182, 244, 1)"></path><path d="M517.15 528.17a38.18 38.18 0 1 0-58.02-49.64z" stroke="rgba(253, 202, 225, 1)"></path><path d="M938.61 345.66a22.26 22.26 0 1 0-22.36 38.5z" stroke="rgba(119, 221, 119, 1)"></path><path d="M813.66 337.65a51.68 51.68 0 1 0-41.01 94.88z" fill="rgba(119, 221, 119, 1)"></path><path d="M402.11 198.44L420.64 198.44L420.64 216.97L402.11 216.97z" stroke="rgba(253, 253, 150, 1)"></path><path d="M221.89 146.6 a11.22 11.22 0 1 0 22.44 0 a11.22 11.22 0 1 0 -22.44 0z" fill="rgba(253, 202, 225, 1)"></path><path d="M287.39 128.37a37.57 37.57 0 1 0-71.78 22.2z" fill="rgba(255, 105, 97, 1)"></path><path d="M1432.95 304.48L1438.79 304.48L1438.79 340.32L1432.95 340.32z" stroke="rgba(132, 182, 244, 1)"></path><path d="M1284.14 72.55a24.7 24.7 0 1 0-19.44-45.41z" stroke="rgba(132, 182, 244, 1)"></path><path d="M162.06 522.17a15.84 15.84 0 1 0 21.23 23.51z" fill="rgba(119, 221, 119, 1)"></path><path d="M930.3 435.5L975.11 435.5L975.11 480.31L930.3 480.31z" stroke="rgba(132, 182, 244, 1)"></path><path d="M169.86 141.68a25.77 25.77 0 1 0 38.91 33.8z" fill="rgba(253, 202, 225, 1)"></path><path d="M976.47 462.95L1014.98 462.95L1014.98 501.46L976.47 501.46z" fill="rgba(253, 253, 150, 1)"></path><path d="M482.6 342.96a2.41 2.41 0 1 0-3.47 3.34z" fill="rgba(253, 202, 225, 1)"></path><path d="M207.85 564a32.83 32.83 0 1 0-47.8-45.02z" fill="rgba(253, 253, 150, 1)"></path><path d="M610.82 528.94L615.53 528.94L615.53 569.12L610.82 569.12z" fill="rgba(253, 253, 150, 1)"></path><path d="M306.46 100.15a0.01 0.01 0 1 0 0.02 0z" stroke="rgba(253, 202, 225, 1)"></path><path d="M876.01 340.81 a37.77 37.77 0 1 0 75.54 0 a37.77 37.77 0 1 0 -75.54 0z" fill="rgba(132, 182, 244, 1)"></path><path d="M662.36 305.93a38.58 38.58 0 1 0-56.32 52.74z" fill="rgba(119, 221, 119, 1)"></path><path d="M262.08 289.37L289.21 289.37L289.21 316.5L262.08 316.5z" stroke="rgba(255, 105, 97, 1)"></path><path d="M1006.88 582.65a48.49 48.49 0 1 0-72.06-64.89z" fill="rgba(132, 182, 244, 1)"></path><path d="M678.1 554.53 a20.67 20.67 0 1 0 41.34 0 a20.67 20.67 0 1 0 -41.34 0z" fill="rgba(255, 105, 97, 1)"></path><path d="M846.97 513.29L852.81 513.29L852.81 519.13L846.97 519.13z" fill="rgba(255, 105, 97, 1)"></path><path d="M705.47 281.13 a46.74 46.74 0 1 0 93.48 0 a46.74 46.74 0 1 0 -93.48 0z" fill="rgba(255, 105, 97, 1)"></path><path d="M907.73 213.15L961.42 213.15L961.42 245.34L907.73 245.34z" stroke="rgba(253, 202, 225, 1)"></path><path d="M566.31 221.43L607.83 221.43L607.83 264.52L566.31 264.52z" stroke="rgba(255, 105, 97, 1)"></path><path d="M835.61 445.41 a50.18 50.18 0 1 0 100.36 0 a50.18 50.18 0 1 0 -100.36 0z" fill="rgba(255, 105, 97, 1)"></path></g><defs><mask id="SvgjsMask1009"><rect width="1440" height="560" fill="#ffffff"></rect></mask></defs></svg>